<svg width="9" height="7" viewBox="0 0 9 7" fill="none" xmlns="http://www.w3.org/2000/svg">
<path d="M0.329063 0.668599C0.224737 0.782824 0.141982 0.918429 0.0855208 1.06767C0.02906 1.21692 0 1.37688 0 1.53842C0 1.69996 0.02906 1.85992 0.0855208 2.00916C0.141982 2.1584 0.224737 2.29401 0.329063 2.40823L3.705 6.10095C3.91607 6.3318 4.2022 6.46146 4.50053 6.46146C4.79886 6.46146 5.08499 6.3318 5.29607 6.10095L8.67088 2.40947C8.77528 2.29508 8.85807 2.1593 8.91454 2.00987C8.97101 1.86045 9.00005 1.70031 9 1.5386C8.99995 1.37689 8.97081 1.21677 8.91424 1.06739C8.85767 0.918008 8.77479 0.782289 8.67031 0.667982C8.56584 0.553675 8.44183 0.463018 8.30536 0.401186C8.1689 0.339355 8.02264 0.30756 7.87495 0.307617C7.72726 0.307675 7.58102 0.339583 7.44459 0.40152C7.30816 0.463458 7.18421 0.554211 7.07981 0.668599L4.49941 3.49026L1.92125 0.668599C1.71018 0.437753 1.42405 0.308087 1.12572 0.308087C0.827391 0.308087 0.541261 0.437753 0.33019 0.668599H0.329063Z" fill="#1E266D"/>
</svg>
